#!OML:ASF I:\Actors\actors\Patient Classification 2\Patient 1\Session 1\actor1.ASF
:FULLY-SPECIFIED
:DEGREES
303
root 0.519916 18.7279 4.98973 13.254 11.1014 0.289176
lowerback 23.5247 0.309366 3.21286
upperback 3.24654 1.46676 2.16731
thorax -9.53002 0.628209 0.0967756
lowerneck -8.83402 -7.99535 -9.38933
upperneck 4.43761 -10.092 7.12884
head 3.58769 -4.88841 3.03271
rclavicle -3.26007e-014 -4.21423e-014
rhumerus 39.6236 53.0594 -73.6697
rradius 147.27
rwrist -15.037
rhand -24.271 -25.6019
rfingers 7.12502
rthumb 2.21566 -55.5701
lclavicle -3.26007e-014 -4.21423e-014
lhumerus 36.976 -52.9975 74.2029
lradius 143.994
lwrist 50.5519
lhand -28.5988 -60.7555
lfingers 7.12502
lthumb -1.96427 -30.7848
rfemur -5.20377 -7.83027 10.6345
rtibia 5.56597e-015
rfoot -18.2983 -17.4666
rtoes -3.56563
lfemur -29.3554 -3.98776 -16.8018
ltibia 32.2329
lfoot -14.6363 -2.21096
ltoes -54.4579
304
root 0.51822 18.7188 4.97476 13.2801 10.5556 0.407888
lowerback 23.6567 0.352725 3.20304
upperback 3.18013 1.50754 1.98135
thorax -9.66833 0.640696 -0.117001
lowerneck -8.00953 -8.3019 -9.53225
upperneck 4.13891 -10.561 7.30887
head 3.42002 -5.13319 3.10772
rclavicle 3.69739e-014 1.35174e-014
rhumerus 39.9179 52.3695 -73.3393
rradius 146.867
rwrist -12.7471
rhand -24.8633 -25.4787
rfingers 7.12502
rthumb 1.64358 -55.4521
lclavicle 3.69739e-014 1.35174e-014
lhumerus 36.8419 -53.5033 74.2888
lradius 143.692
lwrist 49.5931
lhand -28.741 -61.2867
lfingers 7.12502
lthumb -2.1016 -31.3173
rfemur -5.42727 -7.33414 10.404
rtibia 1.74931e-014
rfoot -18.0988 -17.6909
rtoes -4.31268
lfemur -29.5036 -3.42837 -17.057
ltibia 32.5041
lfoot -14.6105 -2.26077
ltoes -54.524
305
root 0.510493 18.708 4.95957 13.2802 9.98779 0.55403
lowerback 23.7778 0.341517 2.96132
upperback 3.24269 1.42935 1.93968
thorax -9.66909 0.611852 -0.00155179
lowerneck -7.68074 -8.56795 -10.0563
upperneck 4.012 -10.9073 7.5904
head 3.40196 -5.30968 3.25903
rclavicle 2.18663e-014 -1.66979e-014
rhumerus 39.7807 52.2957 -73.4457
rradius 146.64
rwrist -10.1205
rhand -25.4627 -25.1911
rfingers 7.12502
rthumb 1.06473 -55.1682
lclavicle 2.18663e-014 -1.66979e-014
lhumerus 36.9049 -53.5974 74.253
lradius 143.318
lwrist 48.0734
lhand -28.8514 -62.0887
lfingers 7.12502
lthumb -2.20822 -32.1204
rfemur -5.61639 -6.8155 10.1571
rtibia 7.95139e-016
rfoot -17.8954 -17.8903
rtoes -5.1337
lfemur -29.6121 -2.86872 -17.3149
ltibia 32.7691
lfoot -14.6271 -2.30778
ltoes -54.6006
306
root 0.499878 18.6962 4.94521 13.2525 9.38381 0.711932
lowerback 23.9144 0.346867 2.69508
upperback 3.31711 1.36505 1.8888
thorax -9.66426 0.590233 0.113532
lowerneck -7.29642 -8.81615 -10.5643
upperneck 3.76632 -11.2358 7.88265
head 3.34001 -5.47828 3.41712
rclavicle 1.19271e-015 3.18055e-015
rhumerus 38.518 53.0016 -74.6505
rradius 146.581
rwrist -6.89955
rhand -25.8176 -24.4392
rfingers 7.12502
rthumb 0.721917 -54.4177
lclavicle 1.19271e-015 3.18055e-015
lhumerus 37.0154 -53.8271 74.172
lradius 143.001
lwrist 46.2878
lhand -28.928 -62.8723
lfingers 7.12502
lthumb -2.28216 -32.9047
rfemur -5.78409 -6.25851 9.89864
rtibia 7.95139e-016
rfoot -17.6712 -18.1031
rtoes -5.96904
lfemur -29.6685 -2.35242 -17.551
ltibia 33.0315
lfoot -14.6801 -2.35913
ltoes -54.5173
307
root 0.485022 18.6862 4.93257 13.2503 8.7822 0.850478
lowerback 24.0157 0.3373 2.39454
upperback 3.3655 1.27401 1.86102
thorax -9.67098 0.55738 0.282824
lowerneck -6.96026 -9.00401 -10.9929
upperneck 3.58724 -11.4803 8.00323
head 3.28542 -5.60897 3.51528
rclavicle 2.74323e-014 1.59028e-015
rhumerus 40.3149 53.0209 -72.2755
rradius 146.312
rwrist -3.1602
rhand -27.5104 -25.3307
rfingers 7.12502
rthumb -0.913066 -55.3085
lclavicle 2.74323e-014 1.59028e-015
lhumerus 37.0255 -54.0486 74.2334
lradius 142.654
lwrist 44.1944
lhand -29.0939 -63.5647
lfingers 7.12502
lthumb -2.44239 -33.599
rfemur -5.9851 -5.70166 9.68307
rtibia -7.95139e-016
rfoot -17.4886 -18.3141
rtoes -6.7134
lfemur -29.7528 -1.82021 -17.7474
ltibia 33.3064
lfoot -14.6916 -2.45717
ltoes -54.3973
308
root 0.471329 18.6759 4.91718 13.3106 8.27107 0.975164
lowerback 24.0374 0.286691 2.22264
upperback 3.38608 1.15781 1.80938
thorax -9.66269 0.507714 0.36072
lowerneck -6.62318 -9.14848 -11.2834
upperneck 3.4131 -11.6721 7.96716
head 3.21054 -5.71641 3.55037
rclavicle 1.19271e-015 -1.98785e-014
rhumerus 40.9277 52.9798 -71.3381
rradius 146.184
rwrist -0.593185
rhand -28.4882 -25.4681
rfingers 7.12502
rthumb -1.85742 -55.4397
lclavicle 1.19271e-015 -1.98785e-014
lhumerus 36.9216 -54.2467 74.3917
lradius 142.236
lwrist 41.5775
lhand -29.3603 -63.9425
lfingers 7.12502
lthumb -2.69969 -33.9799
rfemur -9.00735 -5.23354 9.56108
rtibia 5.54972
rfoot -19.4548 -16.5618
rtoes -7.35389
lfemur -29.9516 -1.32639 -17.9314
ltibia 33.5923
lfoot -14.6619 -2.54575
ltoes -54.4295
309
root 0.460455 18.6646 4.8984 13.445 7.8487 1.05955
lowerback 23.9264 0.0170425 1.90961
upperback 3.62249 0.744772 2.05819
thorax -9.35 0.33219 0.944557
lowerneck -7.43548 -9.17838 -12.2361
upperneck 3.57432 -11.5345 7.95731
head 3.4296 -5.64449 3.66102
rclavicle -7.55382e-015 2.38542e-015
rhumerus 43.2673 52.6507 -69.3401
rradius 145.989
rwrist -0.310258
rhand -28.8014 -25.0744
rfingers 7.12502
rthumb -2.15994 -55.0432
lclavicle -7.55382e-015 2.38542e-015
lhumerus 37.1778 -53.6867 74.3305
lradius 141.791
lwrist 38.467
lhand -29.55 -64.3792
lfingers 7.12502
lthumb -2.88286 -34.4189
rfemur -10.4647 -4.87013 9.41243
rtibia 7.7842
rfoot -20.1522 -15.9522
rtoes -7.87323
lfemur -30.2773 -1.00137 -18.045
ltibia 33.8694
lfoot -14.6385 -2.51974
ltoes -54.4835
310
root 0.444352 18.6544 4.88183 13.512 7.4178 1.11156
lowerback 23.8929 -0.188639 1.73837
upperback 3.80049 0.443273 2.19752
thorax -9.13472 0.199138 1.28913
lowerneck -7.90672 -9.22597 -12.8932
upperneck 3.54236 -11.472 7.97982
head 3.52712 -5.6116 3.75092
rclavicle 1.66979e-014 -1.59028e-014
rhumerus 44.3541 52.2299 -68.5334
rradius 145.77
rwrist 0.125368
rhand -28.843 -24.3202
rfingers 7.12502
rthumb -2.2001 -54.2886
lclavicle 1.66979e-014 -1.59028e-014
lhumerus 37.5331 -53.8014 74.068
lradius 141.408
lwrist 35.443
lhand -29.5392 -65.3629
lfingers 7.12502
lthumb -2.87249 -35.4025
rfemur -11.5276 -4.47672 9.29374
rtibia 9.38042
rfoot -20.6619 -15.5318
rtoes -8.12349
lfemur -30.5038 -0.732034 -18.0937
ltibia 34.1207
lfoot -14.6817 -2.44185
ltoes -54.4617
311
root 0.422339 18.6462 4.86779 13.5094 6.99656 1.1553
lowerback 23.945 -0.308419 1.65402
upperback 3.90028 0.265976 2.2055
thorax -9.04918 0.118253 1.40076
lowerneck -7.89023 -9.22814 -13.0417
upperneck 3.30663 -11.4433 7.85192
head 3.4498 -5.60265 3.74233
rclavicle 5.96354e-015 0
rhumerus 44.8476 52.1882 -67.9645
rradius 145.385
rwrist 2.68068
rhand -29.6886 -24.683
rfingers 7.12502
rthumb -3.01669 -54.6414
lclavicle 5.96354e-015 0
lhumerus 37.7011 -54.3127 73.9608
lradius 141.112
lwrist 32.688
lhand -29.3134 -65.8768
lfingers 7.12502
lthumb -2.65433 -35.9136
rfemur -12.3287 -4.07314 9.20241
rtibia 10.631
rfoot -21.0657 -15.231
rtoes -8.38113
lfemur -30.6144 -0.439467 -18.1255
ltibia 34.3331
lfoot -14.7409 -2.36099
ltoes -54.4529
312
root 0.398777 18.639 4.85354 13.533 6.60119 1.15242
lowerback 23.986 -0.374485 1.73707
upperback 3.90208 0.188227 2.07783
thorax -9.06673 0.0764891 1.2366
lowerneck -7.61839 -9.19969 -12.7194
upperneck 3.09176 -11.451 7.62961
head 3.30981 -5.61401 3.6432
rclavicle -1.47101e-014 1.19271e-014
rhumerus 44.841 52.1305 -67.7804
rradius 145.179
rwrist 5.32012
rhand -30.2142 -25.7035
rfingers 7.12502
rthumb -3.5243 -55.6541
lclavicle -1.47101e-014 1.19271e-014
lhumerus 37.697 -54.7359 73.9962
lradius 140.957
lwrist 30.6355
lhand -29.1957 -65.2244
lfingers 7.12502
lthumb -2.54067 -35.2598
rfemur -13.0531 -4.04391 9.25114
rtibia 11.6444
rfoot -21.1215 -14.756
rtoes -8.69787
lfemur -30.7386 -0.187998 -18.0947
ltibia 34.4929
lfoot -14.768 -2.2122
ltoes -54.5692
313
root 0.373867 18.6325 4.83797 13.5613 6.16912 1.14284
lowerback 24.0521 -0.401823 1.8828
upperback 3.87184 0.172932 1.90271
thorax -9.13376 0.0611209 0.96527
lowerneck -7.25258 -9.19003 -12.3161
upperneck 2.82595 -11.5031 7.44737
head 3.14188 -5.6465 3.54625
rclavicle -4.77083e-015 1.11319e-014
rhumerus 44.5146 51.7462 -67.9997
rradius 144.979
rwrist 7.06746
rhand -30.6636 -25.9648
rfingers 7.12502
rthumb -3.95824 -55.9078
lclavicle -4.77083e-015 1.11319e-014
lhumerus 37.6473 -54.9803 74.1319
lradius 140.754
lwrist 29.1698
lhand -29.1721 -65.0969
lfingers 7.12502
lthumb -2.51792 -35.132
rfemur -13.7157 -4.00549 9.30943
rtibia 12.4814
rfoot -21.0772 -14.2991
rtoes -8.85812
lfemur -30.8413 0.0211208 -18.0415
ltibia 34.5933
lfoot -14.8202 -2.00478
ltoes -54.6901
314
root 0.345323 18.6285 4.82131 13.5802 5.70427 1.177
lowerback 24.1389 -0.437527 1.90161
upperback 3.88279 0.12081 1.78826
thorax -9.16644 0.0335089 0.844997
lowerneck -7.01931 -9.16815 -12.1646
upperneck 2.52305 -11.5027 7.38027
head 3.00023 -5.64932 3.52102
rclavicle -2.78299e-015 -5.56597e-015
rhumerus 44.306 51.5689 -68.1448
rradius 144.825
rwrist 8.18982
rhand -30.8921 -25.52
rfingers 7.12502
rthumb -4.17897 -55.4588
lclavicle -2.78299e-015 -5.56597e-015
lhumerus 37.5102 -54.9361 74.4847
lradius 140.247
lwrist 27.8038
lhand -28.8634 -67.2793
lfingers 7.12502
lthumb -2.21981 -37.3111
rfemur -14.3021 -3.92602 9.32277
rtibia 13.1796
rfoot -20.9456 -13.9074
rtoes -8.98312
lfemur -30.8977 0.179554 -18.0087
ltibia 34.646
lfoot -14.9109 -1.75537
ltoes -54.6918
315
root 0.31297 18.6275 4.80688 13.5934 5.22596 1.22715
lowerback 24.1955 -0.5119 1.76635
upperback 3.943 -0.0126111 1.76823
thorax -9.12867 -0.025625 0.942184
lowerneck -7.10445 -9.11515 -12.3223
upperneck 2.40728 -11.4035 7.38609
head 2.97838 -5.59903 3.55306
rclavicle 9.54166e-015 -1.74931e-014
rhumerus 44.3919 51.8676 -67.9405
rradius 144.674
rwrist 9.73687
rhand -31.1655 -25.3207
rfingers 7.12502
rthumb -4.4429 -55.2541
lclavicle 9.54166e-015 -1.74931e-014
lhumerus 37.3646 -54.5571 74.9758
lradius 140.174
lwrist 26.3918
lhand -28.9002 -66.8575
lfingers 7.12502
lthumb -2.25528 -36.8896
rfemur -14.8145 -3.79993 9.32618
rtibia 13.7699
rfoot -20.8402 -13.5688
rtoes -9.09428
lfemur -30.9136 0.305549 -17.9745
ltibia 34.666
lfoot -15.0435 -1.44251
ltoes -54.7023
316
root 0.27852 18.6266 4.79468 13.5788 4.7458 1.25504
lowerback 24.2431 -0.570227 1.65158
upperback 4.02702 -0.122292 1.73544
thorax -9.05914 -0.0744622 1.00569
lowerneck -7.29286 -9.08731 -12.431
upperneck 2.40635 -11.3324 7.37813
head 3.00669 -5.56148 3.56439
rclavicle 7.15625e-015 7.95139e-016
rhumerus 44.6956 52.2239 -67.4394
rradius 144.4
rwrist 12.2125
rhand -31.9711 -25.9975
rfingers 7.12502
rthumb -5.22085 -55.9132
lclavicle 7.15625e-015 7.95139e-016
lhumerus 37.4936 -54.4375 75.1424
lradius 140.068
lwrist 25.4329
lhand -28.9193 -66.8082
lfingers 7.12502
lthumb -2.27374 -36.8406
rfemur -15.2527 -3.66706 9.36058
rtibia 14.2913
rfoot -20.7598 -13.225
rtoes -9.27176
lfemur -30.8824 0.446243 -17.9245
ltibia 34.6598
lfoot -15.2054 -1.06944
ltoes -54.9086
317
root 0.241237 18.6242 4.78173 13.5523 4.2703 1.22802
lowerback 24.321 -0.437516 1.91229
upperback 3.84718 0.0808327 1.36147
thorax -9.30055 0.0048404 0.381446
lowerneck -6.15675 -9.11741 -11.637
upperneck 1.97938 -11.5625 7.3477
head 2.67294 -5.68849 3.48005
rclavicle 7.95139e-016 -8.74653e-015
rhumerus 43.3681 51.9097 -68.5021
rradius 144.305
rwrist 13.6731
rhand -32.0376 -25.5376
rfingers 7.12502
rthumb -5.28506 -55.4517
lclavicle 7.95139e-016 -8.74653e-015
lhumerus 37.2203 -55.4542 75.2731
lradius 139.939
lwrist 24.8777
lhand -28.9926 -67.0942
lfingers 7.12502
lthumb -2.34458 -37.1273
rfemur -15.6661 -3.5132 9.46635
rtibia 14.771
rfoot -20.6894 -12.8932
rtoes -9.54609
lfemur -30.8244 0.589199 -17.8118
ltibia 34.6372
lfoot -15.37 -0.658912
ltoes -55.2111
